# xmcd
#
# Track frame offsets: 
#        150
#        12932
#        27332
#        42949
#        56527
#        72847
#        94555
#        109788
#        119502
#        138402
#        161239
#        166137
#        185607
#
# Disc length: 2630 seconds
#
# Revision: 0
# Processed by: cddbd v1.5.2PL0 Copyright (c) Steve Scherf et al.
# Submitted via: ExactAudioCopyFreeDBPlugin 1.0
#
DISCID=ad0a440d
DTITLE=Barrelhouse Chuck - Combo Classics
DYEAR=2015
DGENRE=Blues
TTITLE0=Hot and Heavy
TTITLE1=Time Is Tight
TTITLE2=Depression Blues
TTITLE3=Chuckabilly
TTITLE4=Pacific Blue
TTITLE5=My Dog Don't Bow Wow
TTITLE6=Bright Sounds of Big Moose
TTITLE7=Walk Don't Run
TTITLE8=Porchlight
TTITLE9=Wah Wah Blues
TTITLE10=Farfisa B3 Boogie for Winwood
TTITLE11=Don't Go to Dallas
TTITLE12=Slam Hammer
EXTD=
EXTT0=
EXTT1=
EXTT2=
EXTT3=
EXTT4=
EXTT5=
EXTT6=
EXTT7=
EXTT8=
EXTT9=
EXTT10=
EXTT11=
EXTT12=
PLAYORDER=
